<svg xmlns="http://www.w3.org/2000/svg" viewBox="0 0 128 128" role="img" aria-label="Sentinel Core">
  <defs>
    <linearGradient id="g" x1="0" y1="0" x2="1" y2="1">
      <stop offset="0%" stop-color="#f6b73c"/>
      <stop offset="100%" stop-color="#f08a24"/>
    </linearGradient>
  </defs>
  <rect width="128" height="128" rx="20" fill="#111827"/>
  <path d="M64 18 98 34v26c0 24-13 40-34 50C43 100 30 84 30 60V34l34-16z" fill="url(#g)"/>
  <path d="M64 35c-10 0-18 8-18 18 0 8 4 12 9 17 4 4 9 8 9 17 0-9 5-13 9-17 5-5 9-9 9-17 0-10-8-18-18-18z" fill="#111827"/>
  <circle cx="64" cy="52" r="8" fill="#fef3c7"/>
</svg>
